{
	"asset":{
		"generator":"Khronos glTF Blender I/O v4.3.47",
		"version":"2.0"
	},
	"extensionsUsed":[
		"KHR_materials_specular"
	],
	"scene":0,
	"scenes":[
		{
			"name":"Scene",
			"nodes":[
				5
			]
		}
	],
	"nodes":[
		{
			"mesh":0,
			"name":"Object_13"
		},
		{
			"mesh":1,
			"name":"Object_14"
		},
		{
			"children":[
				0,
				1
			],
			"name":"pallet_barrels.smd_4",
			"rotation":[
				-0.00035462339292280376,
				0.7071067094802856,
				-0.0003545926883816719,
				0.7071066498756409
			],
			"scale":[
				5.199999809265137,
				5.199999809265137,
				5.199999809265137
			],
			"translation":[
				0.0003032684326171875,
				0,
				-0.055171847343444824
			]
		},
		{
			"children":[
				2
			],
			"name":"GLTF_SceneRootNode",
			"rotation":[
				0.70710688829422,
				0,
				0,
				0.7071066498756409
			]
		},
		{
			"children":[
				3
			],
			"name":"root"
		},
		{
			"children":[
				4
			],
			"name":"Sketchfab_model",
			"rotation":[
				-0.70710688829422,
				0,
				0,
				0.7071066498756409
			]
		}
	],
	"materials":[
		{
			"doubleSided":true,
			"extensions":{
				"KHR_materials_specular":{
					"specularFactor":0
				}
			},
			"name":"modelspropsde_trainpallet_barrels",
			"normalTexture":{
				"index":0
			},
			"pbrMetallicRoughness":{
				"baseColorTexture":{
					"index":1
				},
				"metallicFactor":0,
				"roughnessFactor":0.5
			}
		},
		{
			"doubleSided":true,
			"extensions":{
				"KHR_materials_specular":{
					"specularFactor":0
				}
			},
			"name":"modelspropsde_trainbarrel08",
			"normalTexture":{
				"index":2
			},
			"pbrMetallicRoughness":{
				"baseColorTexture":{
					"index":3
				},
				"metallicFactor":0,
				"roughnessFactor":0.02734380029141903
			}
		}
	],
	"meshes":[
		{
			"name":"Object_5",
			"primitives":[
				{
					"attributes":{
						"POSITION":0,
						"NORMAL":1,
						"TEXCOORD_0":2,
						"TEXCOORD_1":3
					},
					"indices":4,
					"material":0
				}
			]
		},
		{
			"name":"Object_6",
			"primitives":[
				{
					"attributes":{
						"POSITION":5,
						"NORMAL":6,
						"TEXCOORD_0":7,
						"TEXCOORD_1":8
					},
					"indices":9,
					"material":1
				}
			]
		}
	],
	"textures":[
		{
			"sampler":0,
			"source":0
		},
		{
			"sampler":0,
			"source":1
		},
		{
			"sampler":0,
			"source":2
		},
		{
			"sampler":0,
			"source":3
		}
	],
	"images":[
		{
			"mimeType":"image/png",
			"name":"modelspropsde_trainpallet_barrels_normal",
			"uri":"modelspropsde_trainpallet_barrels_normal.png"
		},
		{
			"mimeType":"image/png",
			"name":"modelspropsde_trainpallet_barrels_baseColor",
			"uri":"modelspropsde_trainpallet_barrels_baseColor.png"
		},
		{
			"mimeType":"image/png",
			"name":"modelspropsde_trainbarrel08_normal",
			"uri":"modelspropsde_trainbarrel08_normal.png"
		},
		{
			"mimeType":"image/png",
			"name":"modelspropsde_trainbarrel08_baseColor",
			"uri":"modelspropsde_trainbarrel08_baseColor.png"
		}
	],
	"accessors":[
		{
			"bufferView":0,
			"componentType":5126,
			"count":1654,
			"max":[
				0.5456125140190125,
				0.9055690765380859,
				0.5993138551712036
			],
			"min":[
				-0.5637021064758301,
				0.00012115800200263038,
				-0.6003003716468811
			],
			"type":"VEC3"
		},
		{
			"bufferView":1,
			"componentType":5126,
			"count":1654,
			"type":"VEC3"
		},
		{
			"bufferView":2,
			"componentType":5126,
			"count":1654,
			"type":"VEC2"
		},
		{
			"bufferView":3,
			"componentType":5126,
			"count":1654,
			"type":"VEC2"
		},
		{
			"bufferView":4,
			"componentType":5123,
			"count":3714,
			"type":"SCALAR"
		},
		{
			"bufferView":5,
			"componentType":5126,
			"count":1484,
			"max":[
				0.5473678708076477,
				0.9789884686470032,
				0.5665847063064575
			],
			"min":[
				-0.5677471160888672,
				0.12368890643119812,
				-0.5613448619842529
			],
			"type":"VEC3"
		},
		{
			"bufferView":6,
			"componentType":5126,
			"count":1484,
			"type":"VEC3"
		},
		{
			"bufferView":7,
			"componentType":5126,
			"count":1484,
			"type":"VEC2"
		},
		{
			"bufferView":8,
			"componentType":5126,
			"count":1484,
			"type":"VEC2"
		},
		{
			"bufferView":9,
			"componentType":5123,
			"count":4200,
			"type":"SCALAR"
		}
	],
	"bufferViews":[
		{
			"buffer":0,
			"byteLength":19848,
			"byteOffset":0,
			"target":34962
		},
		{
			"buffer":0,
			"byteLength":19848,
			"byteOffset":19848,
			"target":34962
		},
		{
			"buffer":0,
			"byteLength":13232,
			"byteOffset":39696,
			"target":34962
		},
		{
			"buffer":0,
			"byteLength":13232,
			"byteOffset":52928,
			"target":34962
		},
		{
			"buffer":0,
			"byteLength":7428,
			"byteOffset":66160,
			"target":34963
		},
		{
			"buffer":0,
			"byteLength":17808,
			"byteOffset":73588,
			"target":34962
		},
		{
			"buffer":0,
			"byteLength":17808,
			"byteOffset":91396,
			"target":34962
		},
		{
			"buffer":0,
			"byteLength":11872,
			"byteOffset":109204,
			"target":34962
		},
		{
			"buffer":0,
			"byteLength":11872,
			"byteOffset":121076,
			"target":34962
		},
		{
			"buffer":0,
			"byteLength":8400,
			"byteOffset":132948,
			"target":34963
		}
	],
	"samplers":[
		{
			"magFilter":9729,
			"minFilter":9987
		}
	],
	"buffers":[
		{
			"byteLength":141348,
			"uri":"AcidTest.bin"
		}
	]
}
